<?xml version="1.0" encoding="UTF-8"?>
<svg id="Layer_1" xmlns="http://www.w3.org/2000/svg" xmlns:xlink="http://www.w3.org/1999/xlink" version="1.1" viewBox="0 0 1843.9 574.1">
  <!-- Generator: Adobe Illustrator 30.2.1, SVG Export Plug-In . SVG Version: 2.1.1 Build 1)  -->
  <defs>
    <style>
      .st0 {
        fill: #4d4d4d;
      }

      .st1 {
        fill: #ccc;
      }

      .st2 {
        fill: #fff;
      }

      .st3 {
        fill: url(#linear-gradient);
        isolation: isolate;
        opacity: .2;
        stroke: #000;
        stroke-miterlimit: 10;
      }

      .st4 {
        fill: #c1272d;
      }
    </style>
    <linearGradient id="linear-gradient" x1="211.6" y1="362.5" x2="504.8" y2="362.5" gradientTransform="translate(0 576) scale(1 -1)" gradientUnits="userSpaceOnUse">
      <stop offset="0" stop-color="#000"/>
      <stop offset=".1" stop-color="#003644"/>
      <stop offset=".4" stop-color="#00a4cf"/>
      <stop offset=".6" stop-color="#5cc5e0"/>
      <stop offset=".8" stop-color="#b3e4f0"/>
      <stop offset=".9" stop-color="#e9f7fb"/>
      <stop offset="1" stop-color="#fff"/>
    </linearGradient>
  </defs>
  <g>
    <path class="st1" d="M39.9,570.7c-5.8,0-11.3-2.3-15.4-6.4l-17.2-17.2c-8.5-8.5-8.5-22.2,0-30.7l199.1-199.1-.2-.3c-20.9-30.6-31.9-66.4-31.9-103.5,0-101.4,82.5-183.9,183.9-183.9s183.9,82.5,183.9,183.9-82.5,183.9-183.9,183.9-72.9-11-103.5-31.9l-.3-.2-199.1,199.1c-4.1,4.1-9.6,6.4-15.4,6.4h0ZM358.2,68.8c-79.8,0-144.7,64.9-144.7,144.7s64.9,144.7,144.7,144.7,144.7-64.9,144.7-144.7-64.9-144.7-144.7-144.7Z"/>
    <path d="M358.2,30.2c24.8,0,48.8,4.9,71.4,14.4,21.8,9.2,41.4,22.5,58.3,39.3,16.8,16.8,30.1,36.5,39.3,58.3,9.6,22.6,14.4,46.6,14.4,71.4s-4.8,48.8-14.4,71.4c-9.2,21.8-22.5,41.4-39.3,58.3-16.8,16.8-36.5,30.1-58.3,39.3-22.6,9.6-46.6,14.4-71.4,14.4-37,0-72.7-11-103.2-31.8l-.7-.5-.6.6-198.8,198.8c-4,4-9.3,6.2-15,6.2s-11-2.2-15-6.2l-17.2-17.2c-4-4-6.2-9.3-6.2-15s2.2-11,6.2-15l198.8-198.8.6-.6-.5-.7c-20.8-30.5-31.8-66.2-31.8-103.2s4.9-48.8,14.4-71.4c9.2-21.8,22.5-41.4,39.3-58.3,16.8-16.8,36.5-30.1,58.3-39.3,22.6-9.6,46.6-14.4,71.4-14.4M358.2,358.8c38.8,0,75.3-15.1,102.7-42.5,27.4-27.4,42.5-63.9,42.5-102.7s-15.1-75.3-42.5-102.7c-27.4-27.4-63.9-42.5-102.7-42.5s-75.3,15.1-102.7,42.5c-27.4,27.4-42.5,63.9-42.5,102.7s15.1,75.3,42.5,102.7c27.4,27.4,63.9,42.5,102.7,42.5M358.2,29.2c-101.8,0-184.4,82.5-184.4,184.4s11.8,74.2,32,103.8L7,516.1c-8.7,8.7-8.7,22.8,0,31.4l17.2,17.2c4.3,4.3,10,6.5,15.7,6.5s11.4-2.2,15.7-6.5l198.8-198.8c29.6,20.2,65.3,32,103.8,32,101.8,0,184.4-82.5,184.4-184.4S460,29.2,358.2,29.2h0ZM358.2,357.8c-79.6,0-144.2-64.6-144.2-144.2s64.6-144.2,144.2-144.2,144.2,64.6,144.2,144.2-64.6,144.2-144.2,144.2h0Z"/>
  </g>
  <g>
    <rect class="st4" x="543" y=".5" width="114.1" height="570.2" rx="24.9" ry="24.9"/>
    <path d="M632.2,1c13.5,0,24.4,11,24.4,24.4v520.3c0,13.5-11,24.4-24.4,24.4h-64.2c-13.5,0-24.4-11-24.4-24.4V25.4c0-13.5,11-24.4,24.4-24.4h64.2M632.2,0h-64.2c-14,0-25.4,11.4-25.4,25.4v520.3c0,14,11.4,25.4,25.4,25.4h64.2c14,0,25.4-11.4,25.4-25.4V25.4c0-14.1-11.4-25.4-25.4-25.4h0Z"/>
  </g>
  <g>
    <rect class="st0" x="658.2" y=".5" width="114.1" height="570.2" rx="24.9" ry="24.9"/>
    <path d="M747.3,1c13.5,0,24.4,11,24.4,24.4v520.3c0,13.5-11,24.4-24.4,24.4h-64.2c-13.5,0-24.4-11-24.4-24.4V25.4c0-13.5,11-24.4,24.4-24.4h64.2M747.3,0h-64.2c-14,0-25.4,11.4-25.4,25.4v520.3c0,14,11.4,25.4,25.4,25.4h64.2c14,0,25.4-11.4,25.4-25.4V25.4c0-14.1-11.4-25.4-25.4-25.4h0Z"/>
  </g>
  <g>
    <rect class="st1" x="773.2" y="3.3" width="114.1" height="570.2" rx="24.9" ry="24.9"/>
    <path d="M862.4,3.8c13.5,0,24.4,11,24.4,24.4v520.4c0,13.5-11,24.4-24.4,24.4h-64.2c-13.5,0-24.4-11-24.4-24.4V28.3c0-13.5,11-24.4,24.4-24.4h64.2M862.4,2.8h-64.2c-14,0-25.4,11.4-25.4,25.4v520.4c0,14,11.4,25.4,25.4,25.4h64.2c14,0,25.4-11.4,25.4-25.4V28.3c0-14.1-11.4-25.4-25.4-25.4h0Z"/>
  </g>
  <circle class="st3" cx="358.2" cy="213.5" r="146.6"/>
  <g>
    <path class="st2" d="M995.3,292.7l-4.2,9.5c-1.9.3-3.5.5-5,.5-2.9,0-6.7-.4-11.6-1.3-3.5-.6-7-1.5-10.5-2.4s-8-2.3-13.5-4c-4.5-1.4-9-2.8-13.4-4-4,3.8-8.8,6.8-14.3,8.9s-10.9,3.2-16.4,3.2-11.5-1.2-15.4-3.5-5.8-5.4-5.8-9.1,2.2-7.2,6.5-9.5,10.2-3.4,17.7-3.4,17.9,1.5,28.4,4.6c2-3.4,3.5-6.9,4.7-10.6,1.2-3.7,2.5-8.9,3.9-15.4l6.9-32.6c2-9.4,3.9-16.8,5.6-22.1,1.7-5.3,3.7-9.8,6-13.7,2.2-3.6,4.6-6.9,7.4-9.7s5.7-4.9,8.7-6.4,5.9-2.2,8.8-2.2,5.9.7,8.2,2.2,4.1,3.6,5.3,6.4,1.8,6,1.8,9.6-.6,7.5-1.9,12.6-2.8,9.8-4.8,14.1l-9.1,1.4c2.7-5.1,5-10.6,6.8-16.5,1.8-5.9,2.7-10.9,2.7-15s-.8-6.8-2.4-8.9c-1.6-2.1-4-3.1-7.1-3.1-6.7,0-12.3,4.4-16.8,13.3-1.4,2.9-2.6,5.8-3.5,8.7-.9,3-2.1,7.9-3.6,14.7l-8.7,40.7c-1.9,8.7-3.8,15.7-5.9,20.8-2,5.1-4.6,9.7-7.7,13.6l2.4.8c9.8,3.3,17.7,5.6,23.7,7,6,1.4,11.1,2.1,15.5,2.1s6.5-.4,10.3-1.1h0ZM932.5,289.5l-2.3-.7c-11.7-3.5-20.6-5.3-26.8-5.3-9.8,0-14.8,2.6-14.8,7.7s1.7,4.8,5.1,6.6c3.4,1.8,7.7,2.7,12.8,2.7s9.7-1,14.3-2.9c4.6-2,8.5-4.6,11.7-8.1h0Z"/>
    <path class="st2" d="M1020.8,243.1l-8.6,32.1c-1.4,5.3-2.2,9.5-2.2,12.7s.4,3.8,1.1,5.1c.7,1.3,1.7,2,2.8,2,2,0,5.2-2.4,9.7-7.2l1.6,1.4-1,1.1c-3.7,4.4-6.5,7.3-8.2,8.8s-3.4,2.3-4.9,2.3-3.7-1-5.1-3.1-2.1-4.6-2.1-7.7.4-5,1.2-9.3l6.2-34.2,9.6-4h0ZM1023.7,204.8c1.7,0,3.1.5,4.1,1.6s1.6,2.4,1.6,4.1-.6,3-1.7,4.1c-1.1,1.1-2.4,1.7-4,1.7s-2.8-.6-4-1.8-1.8-2.5-1.8-4,.5-2.9,1.7-4c1.1-1.1,2.5-1.7,4.1-1.7h0Z"/>
    <path class="st2" d="M1055.9,167.6l10.3-5-28.1,120.4c11.7-26.2,23.2-39.3,34.5-39.3s4.3.6,6.1,1.8c1.8,1.2,3.2,3,4.2,5.3,1,2.3,1.5,4.8,1.5,7.4,0,5-1.2,10.4-3.5,16.5-2.3,6-5.3,11.2-8.9,15.5-6.4,7.8-13.4,11.6-21.1,11.6s-4.7-.4-6.9-1.2c-2.2-.8-4.7-2.2-7.4-4l-6.8,4.1,26.2-133.1h0ZM1038.1,290.2c2.9,6.1,7.1,9.2,12.6,9.2s7.5-1.7,10.9-5.1c3.3-3.4,6.3-8.3,8.9-14.8,1.5-3.6,2.7-7.6,3.7-11.9,1-4.3,1.5-7.7,1.5-10.2,0-6.1-2.2-9.2-6.4-9.2s-6.1,1.8-9.8,5.3c-3.7,3.5-7.3,8.4-11,14.7-3.7,6.3-7.2,13.6-10.4,21.9h0Z"/>
    <path class="st2" d="M1092.4,272.5c5.6-6.8,9.3-13.1,11.2-18.9-5.3-2.9-7.9-7.1-7.9-12.6s.6-4.7,1.9-6.4,2.8-2.4,4.7-2.4,3.6.9,4.8,2.7c1.2,1.8,1.9,4.1,1.9,7s-.4,4.3-1.1,6.7c1.8.5,3.3.7,4.8.7,4,0,7.4-1.2,10-3.5h4.7l-.7,1.4c-4.7,8.6-8.5,17-11.6,25.3s-4.5,14.5-4.5,18.6.4,2.8,1.2,3.8,1.7,1.5,2.8,1.5c2.7,0,7-2.8,12.9-8.5l1.6,1.8c-1.8,2-4.7,4.5-8.5,7.5-3.4,2.7-6.7,4.1-9.7,4.1s-4.5-.9-6-2.5-2.2-4-2.2-6.9c0-4.9,1.9-11.1,5.7-18.5,1.4-2.8,3.1-6,5.3-9.6,2.2-3.6,4.8-7.8,8.1-12.8l1-1.4c-2.2,1.9-4.2,3.3-6.2,4.1-2,.8-4.2,1.2-6.8,1.2s-2.4-.2-3.7-.5c-2.1,6.4-6,13-11.7,19.7l-1.8-1.6h0ZM1105.8,247.6c.3-1.6.4-3,.4-4.1,0-2.3-.4-4.1-1.1-5.4-.8-1.3-1.7-1.9-2.9-1.9s-1.2.3-1.7.9-.7,1.4-.7,2.3c0,3.1,2,5.8,6.1,8.2h0Z"/>
    <path class="st2" d="M1190.8,242.5l-9.2,35.7c-1,3.9-1.5,7-1.5,9.2s.4,3.6,1.3,5.1,1.9,2.1,3.1,2.1c1.9,0,5-2.3,9.4-6.9l1.4,1.4-1.1,1.3c-3.4,4-6.1,6.8-8,8.4s-3.5,2.4-4.8,2.4c-2.1,0-3.9-1.1-5.4-3.3s-2.3-4.7-2.3-7.6.8-6.8,2.3-14.2l.8-3.7c-2.4,5.6-5.6,11-9.7,16.1-6.8,8.6-13.2,12.9-19.4,12.9s-6.6-1.3-8.8-4-3.2-6.2-3.2-10.7,1.7-12.5,5.2-19.2c3.5-6.7,7.8-12.2,13-16.6,5.2-4.3,10.2-6.5,15.1-6.5s9,1.9,11.5,5.7l1.1-3.7,9.2-3.8h0ZM1179.5,255c-.8-2.5-2.1-4.4-4-5.8s-4-2.1-6.4-2.1-5.9,1.3-9.1,4-6.1,6.3-8.8,11c-2.1,3.7-3.8,7.8-5.2,12.3-1.4,4.5-2.1,8.2-2.1,11.1s.6,5.9,1.9,7.8c1.3,1.9,3.1,2.8,5.4,2.8s6.1-1.4,9.4-4.2c3.2-2.8,6.5-6.8,9.7-12,1.9-3,3.5-6,4.6-9,1.1-3,2.3-7.2,3.7-12.5l.9-3.4h0Z"/>
    <path class="st2" d="M1200.7,272.5c5.6-6.8,9.3-13.1,11.2-18.9-5.3-2.9-7.9-7.1-7.9-12.6s.6-4.7,1.9-6.4,2.8-2.4,4.7-2.4,3.6.9,4.8,2.7c1.2,1.8,1.9,4.1,1.9,7s-.4,4.3-1.1,6.7c1.8.5,3.3.7,4.8.7,4,0,7.4-1.2,10-3.5h4.7l-.7,1.4c-4.7,8.6-8.5,17-11.6,25.3s-4.5,14.5-4.5,18.6.4,2.8,1.2,3.8,1.7,1.5,2.8,1.5c2.7,0,7-2.8,12.9-8.5l1.6,1.8c-1.8,2-4.7,4.5-8.5,7.5-3.4,2.7-6.7,4.1-9.7,4.1s-4.5-.9-6-2.5-2.2-4-2.2-6.9c0-4.9,1.9-11.1,5.7-18.5,1.4-2.8,3.1-6,5.3-9.6,2.2-3.6,4.8-7.8,8.1-12.8l1-1.4c-2.2,1.9-4.2,3.3-6.2,4.1-2,.8-4.2,1.2-6.8,1.2s-2.4-.2-3.7-.5c-2.1,6.4-6,13-11.7,19.7l-1.8-1.6h0ZM1214.1,247.6c.3-1.6.4-3,.4-4.1,0-2.3-.4-4.1-1.1-5.4-.8-1.3-1.7-1.9-2.9-1.9s-1.2.3-1.7.9-.7,1.4-.7,2.3c0,3.1,2,5.8,6.1,8.2h0Z"/>
    <path class="st2" d="M1235.3,334.9l4.8-6.5c3.8,4,8,6,12.8,6s9.1-2,12.1-6c3.1-4,5.6-10.5,7.5-19.5l4.5-20.2c-7.2,8.4-13.6,12.6-19.4,12.6s-6-1-8-3.1c-1.9-2.1-2.9-4.9-2.9-8.4s.3-4.9.9-7.7l6.6-35.1,9.5-4-9.5,39.4c-.8,3.2-1.2,5.6-1.2,7.1,0,2.2.7,4,2,5.4,1.3,1.4,3.1,2.1,5.3,2.1s5.1-1.1,8-3.2c2.9-2.1,6.1-5.3,9.7-9.5l8.4-37.3,9.2-4-14.3,57.4c-1.7,6.9-3.3,12.3-4.8,16.2-1.5,3.9-3.3,7.2-5.3,9.8-6.4,8.2-14.2,12.3-23.3,12.3s-9.5-1.3-12.6-3.9h0Z"/>
    <path class="st2" d="M1423.2,278.9l-2.3,11.6c-8.3,3.9-16.4,6.9-24.4,9-8,2.1-15.2,3.1-21.7,3.1s-13.4-1-18.7-3.1-9.3-5-12.2-8.9-4.2-8.5-4.2-13.8c0-8.8,4-17.5,11.9-26.2,7.9-8.7,19.3-16.7,34-24.1-7-1.2-10.6-4.8-10.6-10.9,0-8.7,7.6-18.5,22.7-29.4,4.7-3.4,9.5-6.4,14.3-8.9,4.8-2.6,9.4-4.5,13.7-5.9,4.3-1.4,8-2.1,11.3-2.1s6,.9,8,2.8c1.9,1.9,2.9,4.4,2.9,7.6s-.7,6.3-2.2,10.1c-1.5,3.8-3.6,7.7-6.4,11.8-2.8,4.1-5.9,7.8-9.4,11.1l-5.2-5.7c10.2-11.2,15.2-20.1,15.2-26.8s-2.7-6.7-8-6.7-7.6,1-12.5,3-9.9,4.7-14.8,8.1c-6.5,4.4-11.7,9.1-15.5,14.2-3.8,5-5.7,9.5-5.7,13.4s.6,3.7,1.8,5.4c1.2,1.7,2.7,2.9,4.4,3.6,1.8.6,5,1.1,9.5,1.3h1.7l-1.3,6.2c-9.8,4.2-19.7,10-29.6,17.3-16.4,12.1-24.6,23.5-24.6,34.2s2.1,9.7,6.2,13c4.1,3.4,9.4,5,15.9,5s9.5-.7,14.9-2c5.4-1.4,11.5-3.5,18.1-6.2,6.6-2.8,14.2-6.5,22.8-11h0Z"/>
    <path class="st2" d="M1478.2,285.5c-4,5.6-7.8,9.7-11.6,12.3-3.7,2.6-7.9,3.9-12.4,3.9s-9.1-1.8-12.3-5.3-4.7-8.1-4.7-13.7,1.5-11.8,4.6-17.9,7-11.1,11.8-15c4.8-4,9.4-6,13.8-6s5.4.8,7.2,2.5c1.8,1.7,2.7,3.9,2.7,6.7s-1,5-2.9,7.3c-1.9,2.3-4,3.5-6.2,3.5s-1.9-.4-2.6-1.2c4.2-1.9,6.3-5.4,6.3-10.6s-.5-3.2-1.4-4.2c-.9-1-2.2-1.5-3.8-1.5-2.4,0-4.8,1-7.3,2.9s-4.7,4.7-6.9,8.1c-2.2,3.5-3.8,7.2-5,11.1-1.2,3.9-1.8,7.9-1.8,12s1.1,8.7,3.4,11.7c2.3,3,5.3,4.5,9,4.5s6.3-1,9.3-3c3-2,6.1-5.1,9.4-9.3l1.4,1.2h0Z"/>
    <path class="st2" d="M1484.9,281.4c0-5.9,1.6-11.7,4.7-17.5s7.2-10.6,12.3-14.2c5-3.6,10.1-5.5,15.3-5.5s9.9,1.8,13.2,5.4,5,8.3,5,14-1.6,12.3-4.6,18.2c-3.1,5.9-7.2,10.7-12.2,14.4-5.1,3.7-10.1,5.6-15.3,5.6s-10-1.9-13.4-5.6c-3.4-3.7-5.1-8.7-5.1-14.8h0ZM1526.7,260c0-3.9-1-7.1-2.9-9.7s-4.4-3.8-7.4-3.8-5.4.9-7.9,2.6c-2.5,1.8-4.8,4.3-6.9,7.7-2.3,3.9-4.3,8.5-5.8,13.7-1.5,5.2-2.3,9.8-2.3,13.9s.9,8.5,2.8,11.1,4.6,3.9,8.1,3.9c5.7,0,10.6-3.9,14.9-11.8,2.2-4,4-8.6,5.3-13.6s1.9-9.7,1.9-14.1h0Z"/>
    <path class="st2" d="M1580.1,162.6l-25.7,112.6-.9,3.8c-.8,3.6-1.3,6.6-1.3,9.1s.4,3.7,1.1,4.9,1.7,1.9,2.8,1.9c2,0,5.2-2.4,9.7-7.2l1.6,1.4-1,1.1c-3.7,4.4-6.4,7.3-8.2,8.8s-3.4,2.3-4.9,2.3-3.7-1.1-5.1-3.3c-1.5-2.2-2.2-4.7-2.2-7.5s.4-5,1.3-9.3l22.6-113.7,10.2-5h0Z"/>
    <path class="st2" d="M1572.3,281.4c0-5.9,1.6-11.7,4.7-17.5s7.2-10.6,12.3-14.2c5-3.6,10.1-5.5,15.3-5.5s9.9,1.8,13.2,5.4,5,8.3,5,14-1.6,12.3-4.6,18.2c-3.1,5.9-7.2,10.7-12.2,14.4-5.1,3.7-10.1,5.6-15.3,5.6s-10-1.9-13.4-5.6c-3.4-3.7-5.1-8.7-5.1-14.8h0ZM1614.1,260c0-3.9-1-7.1-2.9-9.7s-4.4-3.8-7.4-3.8-5.4.9-7.9,2.6c-2.5,1.8-4.8,4.3-6.9,7.7-2.3,3.9-4.3,8.5-5.8,13.7-1.5,5.2-2.3,9.8-2.3,13.9s.9,8.5,2.8,11.1,4.6,3.9,8.1,3.9c5.7,0,10.6-3.9,14.9-11.8,2.2-4,4-8.6,5.3-13.6s1.9-9.7,1.9-14.1h0Z"/>
    <path class="st2" d="M1685.5,242.5l-14.9,59.5c-1.5,6.4-2.8,11.1-4,14.1s-2.5,5.7-4.2,8.2c-3.1,4.7-6.8,8.3-11.2,10.8s-9.1,3.8-14.2,3.8-8.7-1.3-12.2-3.9l5-6.5c4.2,4,8.4,6,12.6,6s5.4-.9,8.1-2.5c2.7-1.7,4.8-3.8,6.1-6.2,1.7-3,3.4-8.4,5.3-16.3l7.5-32.2c-8.7,16.3-17.6,24.4-26.6,24.4s-6.6-1.4-8.8-4.1-3.4-6.3-3.4-10.6c0-6.1,1.7-12.5,5.2-19.1s7.8-12.2,13-16.6,10.3-6.6,15.3-6.6,8.5,1.7,11.5,5.2l.9-3.4,9-3.8h0ZM1674.6,254.6c-2.5-4.9-5.9-7.3-10.1-7.3s-8.7,2.4-12.9,7.2c-3.4,4-6.4,9.1-8.8,15.2s-3.7,11.5-3.7,16.4.7,5.8,2.1,7.7c1.4,1.9,3.4,2.8,5.9,2.8s5.5-1.4,8.6-4.3c3.2-2.9,6.3-6.9,9.4-12.1,3.6-5.9,6.3-13,8.3-21.1l1.1-4.4h0Z"/>
    <path class="st2" d="M1711,243.1l-8.6,32.1c-1.4,5.3-2.2,9.5-2.2,12.7s.4,3.8,1.1,5.1c.7,1.3,1.7,2,2.8,2,2,0,5.2-2.4,9.7-7.2l1.6,1.4-1,1.1c-3.7,4.4-6.4,7.3-8.2,8.8s-3.4,2.3-4.9,2.3-3.7-1-5.1-3.1-2.1-4.6-2.1-7.7.4-5,1.2-9.3l6.2-34.2,9.6-4h0ZM1713.8,204.8c1.7,0,3.1.5,4.1,1.6,1,1,1.6,2.4,1.6,4.1s-.6,3-1.7,4.1c-1.1,1.1-2.4,1.7-4,1.7s-2.8-.6-4-1.8-1.8-2.5-1.8-4,.6-2.9,1.7-4c1.1-1.1,2.5-1.7,4.1-1.7h0Z"/>
    <path class="st2" d="M1714.9,293.9l5.5-6.5c2.9,6.8,7.4,10.2,13.7,10.2s6-1.1,8.3-3.2c2.3-2.1,3.5-4.6,3.5-7.4s-.6-3.7-1.7-5.2c-1.1-1.4-3.7-3.8-7.9-7.2-3.8-3.1-6.4-5.6-7.8-7.4s-2-3.9-2-6.2.9-5.9,2.7-8.5c1.8-2.6,4.2-4.7,7.2-6.3,3-1.6,6.2-2.4,9.5-2.4s5.4.7,7.4,2.2c2,1.5,3,3.3,3,5.6s-1.3,5.1-3.8,6.2c-.4-3.1-1.6-5.4-3.5-7.2-1.9-1.7-4.4-2.6-7.4-2.6s-5,.9-7,2.6c-2,1.7-3,3.7-3,5.9s1.7,5.4,5.1,8.1l5.7,4.6c5.5,4.4,8.3,8.8,8.3,13.4s-1,6.6-2.9,9.5-4.5,5.3-7.8,7.1c-3.3,1.8-6.8,2.6-10.4,2.6-5.8,0-10.7-2.7-14.7-8h0Z"/>
    <path class="st2" d="M1781.5,248l-7.4,32.5c-.8,3.6-1.2,6.1-1.2,7.6,0,2.3.6,4.2,1.7,5.7s2.6,2.1,4.4,2.1,3.4-.5,4.8-1.5,3.7-3.1,6.7-6.3l1.2-1.2,1.5,1.5c-3.8,4.7-7.1,8-9.6,9.9s-5.1,2.9-7.6,2.9-5.6-1-7.5-3.1-2.8-4.7-2.8-8.1.5-6,1.5-10.7l6.3-31.4h-9.4l.7-3.3h9.4l5.5-26.4,9.4-3.7-6.8,30.1h15.8l-.7,3.3h-15.8,0Z"/>
    <path class="st2" d="M1793.3,293.9l5.5-6.5c2.9,6.8,7.4,10.2,13.7,10.2s6-1.1,8.3-3.2c2.3-2.1,3.5-4.6,3.5-7.4s-.6-3.7-1.7-5.2c-1.1-1.4-3.7-3.8-7.9-7.2-3.8-3.1-6.4-5.6-7.8-7.4s-2-3.9-2-6.2.9-5.9,2.7-8.5c1.8-2.6,4.2-4.7,7.2-6.3,3-1.6,6.2-2.4,9.5-2.4s5.4.7,7.4,2.2c2,1.5,3,3.3,3,5.6s-1.3,5.1-3.8,6.2c-.4-3.1-1.6-5.4-3.5-7.2-1.9-1.7-4.4-2.6-7.4-2.6s-5,.9-7,2.6c-2,1.7-3,3.7-3,5.9s1.7,5.4,5.1,8.1l5.7,4.6c5.5,4.4,8.3,8.8,8.3,13.4s-1,6.6-2.9,9.5-4.5,5.3-7.8,7.1c-3.3,1.8-6.8,2.6-10.4,2.6-5.8,0-10.7-2.7-14.7-8h0Z"/>
  </g>
</svg>