<?xml version="1.0" encoding="UTF-8"?>
<svg id="Layer_2" data-name="Layer 2" xmlns="http://www.w3.org/2000/svg" xmlns:xlink="http://www.w3.org/1999/xlink" viewBox="0 0 1828.96 637.4">
  <defs>
    <style>
      .cls-1 {
        fill: url(#linear-gradient-5);
      }

      .cls-2 {
        fill: url(#linear-gradient-4);
      }

      .cls-3 {
        fill: url(#linear-gradient-3);
      }

      .cls-4 {
        fill: url(#linear-gradient-2);
      }

      .cls-5 {
        fill: url(#linear-gradient);
      }

      .cls-6 {
        fill: #666;
      }

      .cls-6, .cls-7, .cls-8, .cls-9 {
        stroke: #000;
        stroke-miterlimit: 10;
      }

      .cls-6, .cls-8, .cls-9 {
        stroke-width: 3px;
      }

      .cls-7 {
        fill: #fcee21;
        stroke-width: .25px;
      }

      .cls-10 {
        opacity: .41;
      }

      .cls-11, .cls-8 {
        fill: #f2f2f2;
      }

      .cls-9 {
        fill: #999;
      }
    </style>
    <linearGradient id="linear-gradient" x1="267.85" y1="138.45" x2="212.5" y2="138.45" gradientUnits="userSpaceOnUse">
      <stop offset="0" stop-color="#fff7a9"/>
      <stop offset=".5" stop-color="#fff100"/>
      <stop offset="1" stop-color="gold"/>
    </linearGradient>
    <linearGradient id="linear-gradient-2" x1="289.42" y1="148.55" x2="260.66" y2="148.55" xlink:href="#linear-gradient"/>
    <linearGradient id="linear-gradient-3" x1="321.97" y1="146.4" x2="283.67" y2="146.4" xlink:href="#linear-gradient"/>
    <linearGradient id="linear-gradient-4" x1="368.02" y1="148.55" x2="294.05" y2="148.55" xlink:href="#linear-gradient"/>
    <linearGradient id="linear-gradient-5" x1="412.82" y1="159.59" x2="295.91" y2="159.59" xlink:href="#linear-gradient"/>
  </defs>
  <g id="Layer_1-2" data-name="Layer 1">
    <g>
      <rect class="cls-9" x="141.94" y="54.77" width="179.7" height="57.45" transform="translate(3.49 176.1) rotate(-41.89)"/>
      <g class="cls-10">
        <polygon class="cls-5" points="230.88 44.88 212.5 50.36 249.46 232.01 267.85 226.53 230.88 44.88"/>
        <polygon class="cls-4" points="279.56 54.47 260.66 55.93 270.52 242.63 289.42 241.17 279.56 54.47"/>
        <polygon class="cls-3" points="321.97 55.06 303.19 52.17 283.67 237.75 302.45 240.64 321.97 55.06"/>
        <polygon class="cls-2" points="368.02 65.62 350.39 57.27 294.05 231.48 311.68 239.83 368.02 65.62"/>
        <polygon class="cls-1" points="412.82 97.32 398.67 82.09 295.91 221.87 310.06 237.1 412.82 97.32"/>
      </g>
      <g>
        <path class="cls-11" d="M166.45,476.09c-24.48,0-45.11-8.97-46.97-20.43l-.24-1.47-1.47.23c-5.73.89-11.65,1.34-17.6,1.34-39.38,0-71.41-19.48-71.41-43.43,0-13.01,9.54-25.24,26.17-33.56l3.54-1.77-3.82-1.02c-32.78-8.76-53.14-25.37-53.14-43.34,0-23.28,34.23-43.64,81.4-48.42l.84-.09.36-.77c11.4-24.14,52.39-42.06,101.98-44.59l.53-.03.39-.35c20.4-18.08,54.01-28.88,89.92-28.88,13.26,0,26.23,1.44,38.55,4.28l.4.09.39-.12c16.6-5.19,36.36-7.94,57.14-7.94,25.58,0,49.6,4.17,67.64,11.75,17.63,7.4,27.34,17.08,27.34,27.26,0,.33-.01.66-.03.99l-.09,1.47,1.46.12c57.26,4.74,98.82,24.41,98.82,46.77,0,16-22.11,31.41-57.7,40.22l-2.08.51,1.19,1.78c4.17,6.23,6.29,12.75,6.29,19.35,0,13.62-9.27,27-26.1,37.69l-2.62,1.66,2.92,1.02c16.39,5.73,25.79,13.56,25.79,21.49,0,16.35-38.94,30.17-85.04,30.17-21.43,0-41.94-2.9-57.75-8.16l-.62-.21-.57.31c-25.41,13.75-59.28,21.31-95.36,21.31-21.67,0-42.36-2.68-61.5-7.98l-1.77-.49-.13,1.83c-.81,11.78-21.94,21.37-47.08,21.37Z"/>
        <path d="M373.4,207.35c25.38,0,49.2,4.13,67.06,11.63,16.79,7.05,26.42,16.48,26.42,25.88,0,.29,0,.59-.03.9l-.18,2.93,2.93.24c27.59,2.29,52.64,8.23,70.53,16.74,17.36,8.25,26.92,18.39,26.92,28.54,0,15.28-21.67,30.13-56.56,38.77l-4.15,1.03,2.38,3.55c4.01,5.98,6.04,12.21,6.04,18.52,0,13.09-9.02,26.02-25.4,36.42l-5.23,3.32,5.85,2.04c15.75,5.5,24.78,12.82,24.78,20.08s-8.52,14.14-23.38,19.58c-16.02,5.86-37.39,9.09-60.16,9.09-21.27,0-41.61-2.87-57.27-8.08l-1.23-.41-1.14.62c-25.2,13.63-58.81,21.13-94.65,21.13-21.54,0-42.09-2.67-61.1-7.93l-3.54-.98-.25,3.66c-.34,4.92-5.09,9.88-13.04,13.62-8.72,4.1-20.28,6.36-32.54,6.36-23.36,0-43.77-8.6-45.49-19.17l-.48-2.94-2.94.46c-5.66.88-11.5,1.32-17.37,1.32-18.93,0-36.68-4.51-49.98-12.71-12.85-7.92-19.93-18.29-19.93-29.21,0-12.42,9.24-24.16,25.34-32.22l7.08-3.54-7.64-2.04c-32.09-8.58-52.03-24.63-52.03-41.89,0-10.7,7.88-21.28,22.19-29.81,14.69-8.75,35.23-14.83,57.85-17.12l1.69-.17.72-1.53c5.28-11.17,17.87-21.62,35.47-29.41,18.34-8.13,40.9-13.08,65.23-14.32l1.05-.05.79-.7c20.13-17.85,53.37-28.5,88.92-28.5,13.15,0,26.01,1.43,38.22,4.25l.79.18.78-.24c16.45-5.15,36.06-7.87,56.69-7.87M373.4,204.35c-21.59,0-41.52,2.98-57.59,8.01-12.1-2.79-25.2-4.32-38.89-4.32-37.7,0-70.98,11.58-90.91,29.26-50.59,2.58-91.78,21.12-103.27,45.44C35.51,287.52,0,308.05,0,332.65c0,19.33,21.93,36.15,54.25,44.79-16.47,8.24-27,20.81-27,34.9,0,24.81,32.64,44.93,72.91,44.93,6.15,0,12.12-.47,17.83-1.36,1.98,12.14,22.91,21.69,48.45,21.69s47.7-10.12,48.58-22.76c18.55,5.13,39.6,8.03,61.9,8.03,37.55,0,71.53-8.22,96.08-21.5,15.37,5.12,35.8,8.24,58.22,8.24,47.79,0,86.54-14.18,86.54-31.67,0-9.01-10.28-17.14-26.79-22.91,16.75-10.64,26.79-24.19,26.79-38.96,0-7.07-2.31-13.86-6.54-20.19,35.37-8.75,58.84-24.15,58.84-41.68,0-23.71-42.95-43.52-100.2-48.26.02-.36.03-.72.03-1.08,0-22.37-43.2-40.51-96.48-40.51h0Z"/>
      </g>
      <polygon class="cls-9" points="186.5 165.18 194.59 311.72 372.85 334.4 410.07 193.62 186.5 165.18"/>
      <rect class="cls-6" x="267.73" y="198.28" width="50.08" height="87.64" rx="25.04" ry="25.04" transform="translate(32.9 -35.02) rotate(7.25)"/>
      <rect class="cls-6" x="329.33" y="206.11" width="50.08" height="87.64" rx="25.04" ry="25.04" transform="translate(34.38 -42.73) rotate(7.25)"/>
      <rect class="cls-6" x="204.37" y="190.33" width="51.85" height="87.64" rx="25.92" ry="25.92" transform="translate(31.39 -27.19) rotate(7.25)"/>
      <path class="cls-8" d="M508.22,351.28c0-31.85-64.76-57.68-144.65-57.68-22.35,0-43.52,2.02-62.42,5.63-26.45-13.69-67.96-22.51-114.65-22.51-79.89,0-144.65,25.82-144.65,57.68s63.02,56.98,141.42,57.66c-7.23,6.53-11.3,13.89-11.3,21.68,0,26.9,48.46,48.71,108.25,48.71s108.25-21.81,108.25-48.71c0-1.89-.25-3.76-.71-5.59,68.37-4.59,120.47-28.3,120.47-56.87Z"/>
      <ellipse class="cls-8" cx="129.76" cy="413.75" rx="108.25" ry="48.71"/>
      <path class="cls-8" d="M307.73,530.54c0-17.62-11.41-31.9-25.49-31.9-5.61,0-10.8,2.28-15.01,6.12-5.98-7.7-17.29-12.9-30.27-12.9-19.21,0-34.79,11.37-34.79,25.4s15.28,25.18,34.24,25.39c-3.36,4.38-5.3,9.53-5.3,15.03,0,16,16.36,28.96,36.53,28.96s36.53-12.97,36.53-28.96c0-2.83-.52-5.57-1.47-8.16,3.15-5.31,5.02-11.88,5.02-19Z"/>
      <path class="cls-8" d="M364.44,576.83c-3.21,0-6.23.77-8.91,2.12-.02-.06-.03-.11-.05-.17-3.89-11.78-13.63-19.15-21.75-16.47-8.12,2.68-11.54,14.4-7.65,26.18,2.33,7.05,6.75,12.52,11.67,15.2-2.19,3.41-3.52,7.8-3.52,12.59,0,10.84,6.76,19.63,15.1,19.63s15.02-8.68,15.1-19.43c0,0,0,0,0,0,10.95,0,19.82-8.88,19.82-19.82s-8.88-19.82-19.82-19.82Z"/>
    </g>
    <g>
      <path class="cls-7" d="M653.96,339.58c0,7.32-2.31,13.42-6.94,18.3-4.63,4.88-10.94,7.91-18.95,9.07l8.46,35.31h10.59l-2.65,11.49h-18.78l-10.33-46.02h-14.39l-8.07,34.53h9.29l-2.78,11.49h-31.37l2.52-11.49h8.2l17.49-74.42h-9.29l2.52-11.36h32.15c11.1,0,19.27,1.83,24.5,5.49,5.23,3.66,7.84,9.53,7.84,17.62ZM639.7,340.23c0-4.22-1.56-7.34-4.68-9.36-3.12-2.02-8.25-3.03-15.39-3.03h-9.1l-6.78,28.4h9.68c6.84,0,12.17-.57,15.98-1.71,3.81-1.14,6.48-2.86,8-5.16,1.53-2.3,2.29-5.35,2.29-9.13Z"/>
      <path class="cls-7" d="M675.26,396.32c0,2.37.55,4.12,1.65,5.26,1.1,1.14,2.91,1.71,5.45,1.71,5.03,0,11.96-3.29,20.78-9.88l8.33-35.95h-10.07l2.78-11.55h22.66l-13.23,56.35h8.58l-2.65,11.49h-21.3l1.87-7.94c-8.39,6.07-15.54,9.1-21.43,9.1-10.76,0-16.14-5.27-16.14-15.81,0-1.85.16-3.7.48-5.55.32-1.85.91-4.78,1.77-8.78l6.2-27.3h-8.46l2.9-11.55h20.91l-10.2,43.51c-.6,2.75-.9,5.06-.9,6.91Z"/>
      <path class="cls-7" d="M788.29,344.1c5.12,0,9.76,1.27,13.91,3.81,4.15,2.54,7.37,6.01,9.65,10.42,2.28,4.41,3.42,9.31,3.42,14.68,0,7.49-1.66,14.43-4.97,20.82-3.31,6.39-7.81,11.5-13.49,15.33-5.68,3.83-11.9,5.75-18.65,5.75-5.12,0-9.67-.99-13.65-2.97-3.98-1.98-7.58-5.21-10.81-9.68l-2.52,11.49h-20.4l2.52-11.49h7.81l17.43-74.42h-9.36l2.65-11.36h22.08l-8.71,37.63c6.67-6.67,14.37-10,23.11-10ZM775.89,403.81c4.91,0,9.41-1.43,13.52-4.29,4.11-2.86,7.33-6.6,9.65-11.23s3.49-9.39,3.49-14.3c0-5.38-1.65-9.79-4.94-13.23-3.29-3.44-7.54-5.16-12.75-5.16-4.86,0-9.29,1.45-13.3,4.36-4,2.9-7.18,6.67-9.52,11.3-2.35,4.63-3.52,9.37-3.52,14.23,0,5.38,1.61,9.78,4.84,13.2s7.4,5.13,12.52,5.13Z"/>
      <path class="cls-7" d="M876.46,344.1c5.12,0,9.76,1.27,13.91,3.81,4.15,2.54,7.37,6.01,9.65,10.42,2.28,4.41,3.42,9.31,3.42,14.68,0,7.49-1.66,14.43-4.97,20.82-3.31,6.39-7.81,11.5-13.49,15.33-5.68,3.83-11.9,5.75-18.65,5.75-5.12,0-9.67-.99-13.65-2.97-3.98-1.98-7.58-5.21-10.81-9.68l-2.52,11.49h-20.4l2.52-11.49h7.81l17.43-74.42h-9.36l2.65-11.36h22.08l-8.71,37.63c6.67-6.67,14.37-10,23.11-10ZM864.07,403.81c4.91,0,9.41-1.43,13.52-4.29,4.11-2.86,7.33-6.6,9.65-11.23s3.49-9.39,3.49-14.3c0-5.38-1.65-9.79-4.94-13.23-3.29-3.44-7.54-5.16-12.75-5.16-4.86,0-9.29,1.45-13.3,4.36-4,2.9-7.18,6.67-9.52,11.3-2.35,4.63-3.52,9.37-3.52,14.23,0,5.38,1.61,9.78,4.84,13.2s7.4,5.13,12.52,5.13Z"/>
      <path class="cls-7" d="M941.26,402.26l-2.65,11.49h-30.01l2.65-11.49h7.55l10.52-44.8h-9.36l2.65-11.55h22.08l-13.36,56.35h9.94ZM951.01,322.8c0,2.19-.82,4.05-2.45,5.55-1.64,1.51-3.46,2.26-5.49,2.26-2.2,0-4.04-.79-5.52-2.39-1.48-1.59-2.23-3.4-2.23-5.42,0-2.19.78-4.09,2.36-5.68,1.57-1.59,3.37-2.39,5.39-2.39,2.24,0,4.12.82,5.65,2.45,1.53,1.64,2.29,3.51,2.29,5.62Z"/>
      <path class="cls-7" d="M999.42,350.81l1.48-4.91h11.23l-4.39,18.91h-11.36c-.09-2.88-1.43-5.18-4.03-6.91-2.6-1.72-6.1-2.58-10.49-2.58-3.7,0-6.64.72-8.81,2.16-2.17,1.44-3.26,3.32-3.26,5.65,0,2.02.69,3.6,2.07,4.74,1.38,1.14,4.3,2.59,8.78,4.36l3.62,1.42c7.57,3.19,12.71,6.35,15.39,9.49,2.69,3.14,4.03,7.08,4.03,11.81,0,6.07-2.29,10.91-6.87,14.52-4.58,3.61-11.24,5.42-19.98,5.42-8.09,0-13.94-1.89-17.56-5.68l-.84,4.52h-11.49l4.52-18.91h11.49c0,3.19,1.37,5.66,4.1,7.42,2.73,1.76,6.38,2.65,10.94,2.65,4,0,7.19-.82,9.55-2.45,2.37-1.63,3.55-3.72,3.55-6.26s-1.03-4.56-3.1-6.2c-2.07-1.63-5.57-3.46-10.52-5.49l-4.91-1.94c-5.16-2.24-8.96-4.79-11.39-7.65-2.43-2.86-3.65-6.36-3.65-10.49,0-3.53,1.03-6.79,3.1-9.78,2.07-2.99,4.97-5.35,8.71-7.07,3.74-1.72,7.96-2.58,12.65-2.58,6.97,0,12.78,1.94,17.43,5.81Z"/>
      <path class="cls-7" d="M1064.62,345c5.08,0,8.92,1.43,11.52,4.29,2.6,2.86,3.91,6.94,3.91,12.23,0,2.75-.47,6.37-1.42,10.84l-6.91,29.89h10.2l-2.78,11.49h-22.72l8.71-36.99c.69-2.75,1.26-5.23,1.71-7.42s.68-4.04.68-5.55c0-2.28-.56-3.98-1.68-5.1-1.12-1.12-2.95-1.68-5.49-1.68-4.56,0-11.38,3.01-20.46,9.04l-8.46,36.21h10l-2.65,11.49h-30.92l2.65-11.49h8.2l17.43-74.42h-8.84l2.52-11.36h21.69l-8.71,37.5c4.82-3.36,8.84-5.69,12.07-7,3.23-1.31,6.48-1.97,9.75-1.97Z"/>
      <path class="cls-7" d="M1209.33,339.58c0,7.32-2.31,13.42-6.94,18.3s-10.94,7.91-18.94,9.07l8.46,35.31h10.59l-2.65,11.49h-18.78l-10.33-46.02h-14.39l-8.07,34.53h9.29l-2.78,11.49h-31.37l2.52-11.49h8.2l17.49-74.42h-9.29l2.52-11.36h32.15c11.1,0,19.27,1.83,24.5,5.49,5.23,3.66,7.84,9.53,7.84,17.62ZM1195.07,340.23c0-4.22-1.56-7.34-4.68-9.36s-8.25-3.03-15.39-3.03h-9.1l-6.78,28.4h9.68c6.84,0,12.17-.57,15.98-1.71,3.81-1.14,6.48-2.86,8-5.16,1.53-2.3,2.29-5.35,2.29-9.13Z"/>
      <path class="cls-7" d="M1280.34,374.63c0,2.28-.3,5.06-.9,8.33h-53.19c-.43,1.03-.65,2.35-.65,3.94,0,5.21,1.58,9.47,4.74,12.78,3.16,3.31,7.22,4.97,12.17,4.97,6.97,0,12.74-3.23,17.3-9.68l13.23,5.55c-2.62,4.52-6.82,8.19-12.59,11.01-5.77,2.82-11.71,4.23-17.82,4.23s-11.57-1.26-16.23-3.78c-4.67-2.52-8.26-6.04-10.78-10.59-2.52-4.54-3.78-9.71-3.78-15.52,0-7.57,1.81-14.58,5.42-21.01,3.61-6.43,8.44-11.5,14.49-15.2,6.05-3.7,12.45-5.55,19.2-5.55,5.72,0,10.81,1.32,15.27,3.97,4.45,2.65,7.92,6.28,10.39,10.91,2.47,4.63,3.71,9.84,3.71,15.65ZM1267.49,371.34c0-4.43-1.47-8.23-4.42-11.39-2.95-3.16-6.94-4.74-11.97-4.74-4.65,0-9.03,1.65-13.14,4.94-4.11,3.29-7.22,7.71-9.33,13.26h38.73l.13-2.07Z"/>
      <path class="cls-7" d="M1344.76,319.12l-5.16,8.71c-2.84-1.76-5.53-2.65-8.07-2.65-2.28,0-4.09.8-5.42,2.39-1.33,1.59-2.58,4.45-3.74,8.58l-2.78,9.75h8.91l-2.52,11.43h-8.84l-10.71,44.93h9.75l-2.52,11.49h-30.02l2.65-11.49h7.55l10.46-44.93h-10.07l2.91-11.43h9.94l1.87-7.23c2.28-8.91,5.02-15.13,8.23-18.65,3.21-3.53,7.5-5.29,12.88-5.29s10.11,1.46,14.72,4.39Z"/>
      <path class="cls-7" d="M1364.7,402.26l-2.65,11.49h-29.56l2.65-11.49h7.62l17.75-74.42h-9.29l2.78-11.36h21.69l-20.08,85.79h9.1Z"/>
      <path class="cls-7" d="M1448.03,374.63c0,2.28-.3,5.06-.9,8.33h-53.19c-.43,1.03-.65,2.35-.65,3.94,0,5.21,1.58,9.47,4.74,12.78,3.16,3.31,7.22,4.97,12.17,4.97,6.97,0,12.74-3.23,17.3-9.68l13.23,5.55c-2.62,4.52-6.82,8.19-12.59,11.01-5.77,2.82-11.71,4.23-17.82,4.23s-11.57-1.26-16.23-3.78c-4.67-2.52-8.26-6.04-10.78-10.59-2.52-4.54-3.78-9.71-3.78-15.52,0-7.57,1.81-14.58,5.42-21.01,3.61-6.43,8.44-11.5,14.49-15.2,6.05-3.7,12.45-5.55,19.2-5.55,5.72,0,10.81,1.32,15.27,3.97,4.45,2.65,7.92,6.28,10.39,10.91,2.47,4.63,3.71,9.84,3.71,15.65ZM1435.19,371.34c0-4.43-1.47-8.23-4.42-11.39-2.95-3.16-6.94-4.74-11.97-4.74-4.65,0-9.03,1.65-13.14,4.94-4.11,3.29-7.22,7.71-9.33,13.26h38.73l.13-2.07Z"/>
      <path class="cls-7" d="M1513.62,351.72l1.48-5.81h11.23l-4.91,20.4h-11.23c-.82-3.7-2.59-6.56-5.33-8.58-2.73-2.02-5.99-3.03-9.78-3.03-4.56,0-8.69,1.54-12.39,4.62-3.7,3.08-6.6,7.04-8.68,11.88-2.09,4.84-3.13,9.87-3.13,15.07,0,5.55,1.57,10.07,4.71,13.56,3.14,3.49,7.27,5.23,12.39,5.23,7.06,0,13.3-3.92,18.72-11.75l9.29,6.71c-7.92,10.5-17.88,15.75-29.89,15.75-5.55,0-10.51-1.24-14.88-3.71-4.37-2.47-7.76-5.96-10.17-10.46-2.41-4.5-3.61-9.65-3.61-15.46,0-7.23,1.65-14.06,4.94-20.49,3.29-6.43,7.82-11.63,13.59-15.59,5.77-3.96,12.05-5.94,18.85-5.94,7.66,0,13.92,2.54,18.78,7.62Z"/>
      <path class="cls-7" d="M1567.26,345.91l-2.65,11.55h-9.49l-7.55,31.95c-1.29,5.9-1.94,9.47-1.94,10.71,0,3.19,1.66,4.78,4.97,4.78,2.24,0,5.72-1.29,10.46-3.87l-2.65,11.55c-1.94.95-4,1.71-6.2,2.29-2.2.58-4.3.87-6.33.87-3.87,0-6.98-1.28-9.33-3.84-2.35-2.56-3.52-5.95-3.52-10.17,0-3.1,1.31-10.33,3.94-21.69l5.42-22.59h-7.62l2.52-11.55h7.75l3.36-13.17,15.3-12.2-6.07,25.37h9.62Z"/>
      <path class="cls-7" d="M1598.76,402.26l-2.65,11.49h-30.02l2.65-11.49h7.55l10.52-44.8h-9.36l2.65-11.55h22.08l-13.36,56.35h9.94ZM1608.5,322.8c0,2.19-.82,4.05-2.45,5.55-1.64,1.51-3.46,2.26-5.49,2.26-2.2,0-4.04-.79-5.52-2.39-1.48-1.59-2.23-3.4-2.23-5.42,0-2.19.78-4.09,2.36-5.68,1.57-1.59,3.37-2.39,5.39-2.39,2.24,0,4.12.82,5.65,2.45,1.53,1.64,2.29,3.51,2.29,5.62Z"/>
      <path class="cls-7" d="M1682.02,373.15c0,8.13-1.83,15.44-5.49,21.91-3.66,6.48-8.58,11.54-14.78,15.2s-12.95,5.49-20.27,5.49c-6.11,0-11.44-1.22-15.98-3.65-4.54-2.43-8.06-5.85-10.55-10.26-2.5-4.41-3.74-9.52-3.74-15.33,0-8,1.89-15.24,5.68-21.72,3.79-6.48,8.85-11.54,15.2-15.2,6.35-3.66,13.22-5.49,20.62-5.49,8.99,0,16.13,2.59,21.4,7.78,5.27,5.19,7.91,12.27,7.91,21.27ZM1642.26,403.55c5.03,0,9.55-1.39,13.55-4.16s7.12-6.5,9.36-11.17c2.24-4.67,3.36-9.65,3.36-14.94s-1.58-9.56-4.74-12.55c-3.16-2.99-7.56-4.49-13.2-4.49-4.61,0-8.84,1.32-12.72,3.97s-6.93,6.2-9.17,10.65c-2.24,4.45-3.36,9.24-3.36,14.36,0,12.22,5.64,18.33,16.91,18.33Z"/>
      <path class="cls-7" d="M1757.29,360.37c0,1.55-.14,3.32-.42,5.33-.28,2-.94,5.24-1.97,9.71l-6.39,26.85h10.07l-2.78,11.49h-22.59l10-42.73c.73-3.7,1.1-6.11,1.1-7.23,0-2.19-.53-3.89-1.58-5.1-1.05-1.2-2.79-1.81-5.2-1.81-5.25,0-12.11,3.01-20.59,9.04l-8.58,36.34h10.01l-2.45,11.49h-30.98l2.65-11.49h8.07l10.59-44.8h-8.84l2.65-11.55h21.56l-1.87,8.07c8.35-5.98,15.71-8.97,22.08-8.97,5.04,0,8.88,1.37,11.52,4.1,2.65,2.73,3.97,6.49,3.97,11.26Z"/>
      <path class="cls-7" d="M1816.09,350.81l1.48-4.91h11.23l-4.39,18.91h-11.36c-.09-2.88-1.43-5.18-4.03-6.91-2.6-1.72-6.1-2.58-10.49-2.58-3.7,0-6.64.72-8.81,2.16-2.17,1.44-3.26,3.32-3.26,5.65,0,2.02.69,3.6,2.07,4.74,1.38,1.14,4.3,2.59,8.78,4.36l3.62,1.42c7.57,3.19,12.71,6.35,15.39,9.49,2.69,3.14,4.03,7.08,4.03,11.81,0,6.07-2.29,10.91-6.87,14.52-4.58,3.61-11.24,5.42-19.98,5.42-8.09,0-13.94-1.89-17.56-5.68l-.84,4.52h-11.49l4.52-18.91h11.49c0,3.19,1.37,5.66,4.1,7.42,2.73,1.76,6.38,2.65,10.94,2.65,4,0,7.19-.82,9.55-2.45,2.37-1.63,3.55-3.72,3.55-6.26s-1.03-4.56-3.1-6.2c-2.07-1.63-5.57-3.46-10.52-5.49l-4.91-1.94c-5.16-2.24-8.96-4.79-11.39-7.65-2.43-2.86-3.65-6.36-3.65-10.49,0-3.53,1.03-6.79,3.1-9.78,2.07-2.99,4.97-5.35,8.71-7.07,3.74-1.72,7.96-2.58,12.65-2.58,6.97,0,12.78,1.94,17.43,5.81Z"/>
    </g>
  </g>
</svg>