<?xml version="1.0" encoding="UTF-8"?>
<svg id="Layer_2" data-name="Layer 2" xmlns="http://www.w3.org/2000/svg" xmlns:xlink="http://www.w3.org/1999/xlink" viewBox="0 0 1642.06 504.95">
  <defs>
    <style>
      .cls-1 {
        fill: url(#linear-gradient-5);
      }

      .cls-2 {
        fill: url(#linear-gradient-4);
      }

      .cls-3 {
        fill: url(#linear-gradient-3);
      }

      .cls-4 {
        fill: url(#linear-gradient-2);
      }

      .cls-5 {
        fill: #006837;
      }

      .cls-5, .cls-6, .cls-7, .cls-8 {
        stroke: #231f20;
        stroke-linecap: round;
        stroke-miterlimit: 10;
      }

      .cls-9 {
        fill: url(#linear-gradient);
      }

      .cls-10 {
        fill: #fcee21;
      }

      .cls-6 {
        fill: #333;
      }

      .cls-7 {
        fill: #004937;
      }

      .cls-11 {
        opacity: .41;
      }

      .cls-8 {
        fill: #3fa9f5;
      }
    </style>
    <linearGradient id="linear-gradient" x1="180.61" y1="156.62" x2="84.46" y2="156.62" gradientTransform="translate(-31.43 379.69) rotate(-70.63)" gradientUnits="userSpaceOnUse">
      <stop offset="0" stop-color="#fff7a9"/>
      <stop offset=".5" stop-color="#fff100"/>
      <stop offset="1" stop-color="gold"/>
    </linearGradient>
    <linearGradient id="linear-gradient-2" x1="218.08" y1="174.17" x2="168.13" y2="174.17" xlink:href="#linear-gradient"/>
    <linearGradient id="linear-gradient-3" x1="274.62" y1="170.44" x2="208.1" y2="170.44" xlink:href="#linear-gradient"/>
    <linearGradient id="linear-gradient-4" x1="354.61" y1="174.17" x2="226.13" y2="174.17" xlink:href="#linear-gradient"/>
    <linearGradient id="linear-gradient-5" x1="432.43" y1="193.35" x2="229.36" y2="193.35" xlink:href="#linear-gradient"/>
  </defs>
  <g id="Layer_1-2" data-name="Layer 1">
    <rect class="cls-6" x="1223.11" y="326.17" width="61.58" height="34.13"/>
    <g class="cls-11">
      <polygon class="cls-9" points="1.62 267.93 0 301.21 318.96 345.3 320.58 312.02 1.62 267.93"/>
      <polygon class="cls-4" points="45.38 193.68 36.89 225.49 348.49 316.91 356.99 285.11 45.38 193.68"/>
      <polygon class="cls-3" points="70.78 124.53 55.22 153.64 348.07 292.55 363.64 263.44 70.78 124.53"/>
      <polygon class="cls-2" points="114.62 55.15 90.78 79.23 343.79 271.94 367.63 247.85 114.62 55.15"/>
      <polygon class="cls-1" points="192.38 0 159.28 14.41 329.12 263.35 362.22 248.94 192.38 0"/>
    </g>
    <path class="cls-5" d="M1589.94,184.84l-58.73-14.74c-27.3-6.85-48.22-28.81-53.73-56.41l-16.92-84.66h-198.86v365.99h328.25c28.51,0,51.62-23.11,51.62-51.62v-106.95c0-28.51-23.11-51.62-51.62-51.62Z"/>
    <polygon class="cls-8" points="1496.88 151.07 1343.3 151.07 1343.3 52.78 1465.3 52.78 1496.88 151.07"/>
    <path class="cls-5" d="M266.03,398.35h958.43c9.61,0,17.4-7.79,17.4-17.4V43.1c0-9.61-7.79-17.4-17.4-17.4H417.38c-2.92,0-5.79.73-8.35,2.13l-93.18,50.94c-8.43,4.61-14.59,12.47-17.05,21.75l-32.4,122.29c-.25.93-.45,1.87-.62,2.81l-27.79,155.64"/>
    <circle class="cls-6" cx="491.07" cy="408.9" r="95.54"/>
    <circle class="cls-6" cx="745.31" cy="408.9" r="95.54"/>
    <circle class="cls-6" cx="1390.79" cy="408.9" r="95.54"/>
    <path class="cls-7" d="M1496.88,395.02c0-58.59-47.5-106.1-106.09-106.1s-106.1,47.5-106.1,106.1c0,1.11.02,2.22.06,3.33h212.08c.03-1.11.06-2.22.06-3.33Z"/>
    <path class="cls-7" d="M491.07,292.26c-58.59,0-106.1,47.5-106.1,106.1h212.19c0-58.59-47.5-106.1-106.1-106.1Z"/>
    <path class="cls-7" d="M745.31,292.26c-58.59,0-106.1,47.5-106.1,106.1h212.19c0-58.59-47.5-106.1-106.1-106.1Z"/>
    <g>
      <path class="cls-10" d="M380.56,159.08c0,5.22-1.65,9.58-4.95,13.06-3.3,3.49-7.81,5.65-13.52,6.47l6.04,25.21h7.56l-1.89,8.2h-13.41l-7.37-32.86h-10.28l-5.76,24.65h6.64l-1.98,8.2h-22.4l1.8-8.2h5.85l12.49-53.13h-6.64l1.8-8.11h22.95c7.93,0,13.75,1.31,17.49,3.92,3.73,2.61,5.6,6.8,5.6,12.58ZM370.38,159.54c0-3.01-1.11-5.24-3.34-6.68-2.23-1.44-5.89-2.17-10.99-2.17h-6.5l-4.84,20.28h6.91c4.88,0,8.69-.41,11.41-1.22,2.72-.81,4.62-2.04,5.71-3.69,1.09-1.64,1.64-3.82,1.64-6.52Z"/>
      <path class="cls-10" d="M395.77,199.59c0,1.69.39,2.94,1.18,3.76.78.81,2.08,1.22,3.89,1.22,3.59,0,8.54-2.35,14.84-7.05l5.94-25.67h-7.19l1.98-8.25h16.17l-9.45,40.23h6.13l-1.89,8.2h-15.21l1.34-5.67c-5.99,4.33-11.09,6.5-15.3,6.5-7.68,0-11.52-3.76-11.52-11.29,0-1.32.12-2.64.35-3.96.23-1.32.65-3.41,1.27-6.27l4.42-19.49h-6.04l2.07-8.25h14.93l-7.28,31.06c-.43,1.97-.65,3.61-.65,4.93Z"/>
      <path class="cls-10" d="M476.45,162.31c3.66,0,6.97.91,9.93,2.72,2.96,1.81,5.26,4.29,6.89,7.44,1.63,3.15,2.44,6.64,2.44,10.48,0,5.35-1.18,10.3-3.55,14.86-2.37,4.56-5.58,8.21-9.63,10.94-4.05,2.73-8.49,4.1-13.32,4.1-3.66,0-6.9-.71-9.75-2.12-2.84-1.41-5.41-3.72-7.72-6.91l-1.8,8.2h-14.56l1.8-8.2h5.58l12.44-53.13h-6.68l1.89-8.11h15.76l-6.22,26.87c4.76-4.76,10.26-7.14,16.5-7.14ZM467.61,204.93c3.5,0,6.72-1.02,9.65-3.06,2.93-2.04,5.23-4.72,6.89-8.02,1.66-3.3,2.49-6.7,2.49-10.21,0-3.84-1.18-6.99-3.53-9.45-2.35-2.46-5.38-3.69-9.1-3.69-3.47,0-6.64,1.04-9.49,3.11-2.86,2.07-5.12,4.76-6.8,8.06-1.67,3.3-2.51,6.69-2.51,10.16,0,3.84,1.15,6.98,3.46,9.42,2.3,2.44,5.28,3.66,8.94,3.66Z"/>
      <path class="cls-10" d="M539.4,162.31c3.66,0,6.97.91,9.93,2.72,2.96,1.81,5.26,4.29,6.89,7.44,1.63,3.15,2.44,6.64,2.44,10.48,0,5.35-1.18,10.3-3.55,14.86-2.37,4.56-5.58,8.21-9.63,10.94-4.05,2.73-8.49,4.1-13.32,4.1-3.66,0-6.9-.71-9.75-2.12-2.84-1.41-5.41-3.72-7.72-6.91l-1.8,8.2h-14.56l1.8-8.2h5.58l12.44-53.13h-6.68l1.89-8.11h15.76l-6.22,26.87c4.76-4.76,10.26-7.14,16.5-7.14ZM530.55,204.93c3.5,0,6.72-1.02,9.65-3.06,2.93-2.04,5.23-4.72,6.89-8.02,1.66-3.3,2.49-6.7,2.49-10.21,0-3.84-1.18-6.99-3.53-9.45-2.35-2.46-5.38-3.69-9.1-3.69-3.47,0-6.64,1.04-9.49,3.11-2.86,2.07-5.12,4.76-6.8,8.06-1.67,3.3-2.51,6.69-2.51,10.16,0,3.84,1.15,6.98,3.46,9.42,2.3,2.44,5.28,3.66,8.94,3.66Z"/>
      <path class="cls-10" d="M585.66,203.83l-1.89,8.2h-21.43l1.89-8.2h5.39l7.51-31.98h-6.68l1.89-8.25h15.76l-9.54,40.23h7.1ZM592.62,147.1c0,1.57-.58,2.89-1.75,3.96-1.17,1.08-2.47,1.61-3.92,1.61-1.57,0-2.88-.57-3.94-1.71-1.06-1.14-1.59-2.43-1.59-3.87,0-1.57.56-2.92,1.68-4.06,1.12-1.14,2.4-1.71,3.85-1.71,1.6,0,2.94.58,4.03,1.75,1.09,1.17,1.64,2.5,1.64,4.01Z"/>
      <path class="cls-10" d="M627.18,167.1l1.06-3.5h8.02l-3.13,13.5h-8.11c-.06-2.06-1.02-3.7-2.88-4.93-1.86-1.23-4.35-1.84-7.49-1.84-2.64,0-4.74.51-6.29,1.54-1.55,1.03-2.33,2.37-2.33,4.03,0,1.44.49,2.57,1.47,3.39.98.81,3.07,1.85,6.27,3.11l2.58,1.01c5.41,2.27,9.07,4.53,10.99,6.77,1.92,2.24,2.88,5.05,2.88,8.43,0,4.33-1.64,7.79-4.91,10.37-3.27,2.58-8.03,3.87-14.26,3.87-5.78,0-9.95-1.35-12.53-4.05l-.6,3.23h-8.2l3.23-13.5h8.2c0,2.27.97,4.04,2.93,5.3,1.95,1.26,4.55,1.89,7.81,1.89,2.86,0,5.13-.58,6.82-1.75,1.69-1.17,2.53-2.66,2.53-4.47s-.74-3.26-2.21-4.42c-1.47-1.17-3.98-2.47-7.51-3.92l-3.5-1.38c-3.69-1.6-6.4-3.42-8.13-5.46-1.74-2.04-2.6-4.54-2.6-7.49,0-2.52.74-4.85,2.21-6.98,1.47-2.13,3.55-3.82,6.22-5.05,2.67-1.23,5.68-1.84,9.03-1.84,4.98,0,9.12,1.38,12.44,4.15Z"/>
      <path class="cls-10" d="M673.72,162.95c3.62,0,6.37,1.02,8.23,3.06,1.86,2.04,2.79,4.95,2.79,8.73,0,1.97-.34,4.55-1.01,7.74l-4.93,21.34h7.28l-1.98,8.2h-16.22l6.22-26.4c.49-1.97.9-3.73,1.22-5.3.32-1.57.48-2.89.48-3.96,0-1.63-.4-2.84-1.2-3.64-.8-.8-2.1-1.2-3.92-1.2-3.26,0-8.13,2.15-14.61,6.45l-6.04,25.85h7.14l-1.89,8.2h-22.07l1.89-8.2h5.85l12.44-53.13h-6.31l1.8-8.11h15.48l-6.22,26.77c3.44-2.4,6.31-4.06,8.62-5,2.3-.94,4.62-1.41,6.96-1.41Z"/>
      <path class="cls-10" d="M777.03,159.08c0,5.22-1.65,9.58-4.95,13.06-3.3,3.49-7.81,5.65-13.52,6.47l6.04,25.21h7.56l-1.89,8.2h-13.41l-7.37-32.86h-10.28l-5.76,24.65h6.64l-1.98,8.2h-22.4l1.8-8.2h5.85l12.49-53.13h-6.64l1.8-8.11h22.95c7.93,0,13.75,1.31,17.49,3.92,3.73,2.61,5.6,6.8,5.6,12.58ZM766.85,159.54c0-3.01-1.11-5.24-3.34-6.68-2.23-1.44-5.89-2.17-10.99-2.17h-6.5l-4.84,20.28h6.91c4.88,0,8.69-.41,11.41-1.22,2.72-.81,4.62-2.04,5.71-3.69,1.09-1.64,1.64-3.82,1.64-6.52Z"/>
      <path class="cls-10" d="M827.72,184.1c0,1.63-.21,3.61-.64,5.94h-37.97c-.31.74-.46,1.67-.46,2.81,0,3.72,1.13,6.76,3.39,9.12,2.26,2.37,5.15,3.55,8.69,3.55,4.98,0,9.09-2.3,12.35-6.91l9.45,3.96c-1.87,3.23-4.87,5.84-8.99,7.86-4.12,2.01-8.36,3.02-12.72,3.02s-8.26-.9-11.59-2.7c-3.33-1.8-5.9-4.32-7.7-7.56-1.8-3.24-2.7-6.94-2.7-11.08,0-5.41,1.29-10.41,3.87-15,2.58-4.59,6.03-8.21,10.35-10.85,4.32-2.64,8.89-3.96,13.71-3.96,4.08,0,7.72.94,10.9,2.83s5.65,4.49,7.42,7.79c1.77,3.3,2.65,7.03,2.65,11.17ZM818.55,181.75c0-3.16-1.05-5.88-3.16-8.13-2.1-2.26-4.95-3.39-8.55-3.39-3.32,0-6.44,1.18-9.38,3.53-2.93,2.35-5.15,5.51-6.66,9.47h27.65l.09-1.47Z"/>
      <path class="cls-10" d="M873.71,144.47l-3.69,6.22c-2.03-1.26-3.95-1.89-5.76-1.89-1.63,0-2.92.57-3.87,1.71-.95,1.14-1.84,3.18-2.67,6.13l-1.98,6.96h6.36l-1.8,8.16h-6.31l-7.65,32.07h6.96l-1.8,8.2h-21.43l1.89-8.2h5.39l7.46-32.07h-7.19l2.07-8.16h7.1l1.34-5.16c1.63-6.36,3.59-10.8,5.88-13.32,2.29-2.52,5.35-3.78,9.19-3.78s7.22,1.04,10.51,3.13Z"/>
      <path class="cls-10" d="M887.95,203.83l-1.89,8.2h-21.1l1.89-8.2h5.44l12.67-53.13h-6.64l1.98-8.11h15.48l-14.33,61.24h6.5Z"/>
      <path class="cls-10" d="M947.44,184.1c0,1.63-.21,3.61-.64,5.94h-37.97c-.31.74-.46,1.67-.46,2.81,0,3.72,1.13,6.76,3.39,9.12,2.26,2.37,5.15,3.55,8.69,3.55,4.98,0,9.09-2.3,12.35-6.91l9.45,3.96c-1.87,3.23-4.87,5.84-8.99,7.86-4.12,2.01-8.36,3.02-12.72,3.02s-8.26-.9-11.59-2.7c-3.33-1.8-5.9-4.32-7.7-7.56-1.8-3.24-2.7-6.94-2.7-11.08,0-5.41,1.29-10.41,3.87-15,2.58-4.59,6.03-8.21,10.35-10.85,4.32-2.64,8.89-3.96,13.71-3.96,4.08,0,7.72.94,10.9,2.83s5.65,4.49,7.42,7.79c1.77,3.3,2.65,7.03,2.65,11.17ZM938.27,181.75c0-3.16-1.05-5.88-3.16-8.13-2.1-2.26-4.95-3.39-8.55-3.39-3.32,0-6.44,1.18-9.38,3.53-2.93,2.35-5.15,5.51-6.66,9.47h27.65l.09-1.47Z"/>
      <path class="cls-10" d="M994.26,167.74l1.06-4.15h8.02l-3.5,14.56h-8.02c-.58-2.64-1.85-4.68-3.8-6.13-1.95-1.44-4.28-2.17-6.98-2.17-3.26,0-6.21,1.1-8.85,3.29-2.64,2.2-4.71,5.02-6.2,8.48s-2.23,7.04-2.23,10.76c0,3.96,1.12,7.19,3.36,9.68,2.24,2.49,5.19,3.73,8.85,3.73,5.04,0,9.49-2.79,13.36-8.39l6.64,4.79c-5.65,7.5-12.76,11.24-21.33,11.24-3.96,0-7.5-.88-10.62-2.65-3.12-1.77-5.54-4.25-7.26-7.47-1.72-3.21-2.58-6.89-2.58-11.04,0-5.16,1.17-10.04,3.53-14.63,2.35-4.59,5.58-8.3,9.7-11.13,4.12-2.83,8.6-4.24,13.46-4.24,5.47,0,9.94,1.81,13.41,5.44Z"/>
      <path class="cls-10" d="M1032.55,163.6l-1.89,8.25h-6.77l-5.39,22.81c-.92,4.21-1.38,6.76-1.38,7.65,0,2.27,1.18,3.41,3.55,3.41,1.6,0,4.09-.92,7.47-2.76l-1.89,8.25c-1.38.68-2.86,1.22-4.42,1.64-1.57.41-3.07.62-4.52.62-2.76,0-4.98-.92-6.66-2.74-1.67-1.83-2.51-4.25-2.51-7.26,0-2.21.94-7.37,2.81-15.48l3.87-16.13h-5.44l1.8-8.25h5.53l2.4-9.4,10.92-8.71-4.33,18.11h6.87Z"/>
      <path class="cls-10" d="M1055.04,203.83l-1.89,8.2h-21.43l1.89-8.2h5.39l7.51-31.98h-6.68l1.89-8.25h15.76l-9.54,40.23h7.1ZM1062,147.1c0,1.57-.58,2.89-1.75,3.96-1.17,1.08-2.47,1.61-3.92,1.61-1.57,0-2.88-.57-3.94-1.71-1.06-1.14-1.59-2.43-1.59-3.87,0-1.57.56-2.92,1.68-4.06,1.12-1.14,2.4-1.71,3.85-1.71,1.6,0,2.94.58,4.03,1.75,1.09,1.17,1.64,2.5,1.64,4.01Z"/>
      <path class="cls-10" d="M1114.48,183.04c0,5.81-1.31,11.02-3.92,15.64-2.61,4.62-6.13,8.24-10.55,10.85s-9.25,3.92-14.47,3.92c-4.36,0-8.16-.87-11.41-2.6s-5.75-4.18-7.53-7.33c-1.78-3.15-2.67-6.8-2.67-10.94,0-5.71,1.35-10.88,4.06-15.51,2.7-4.62,6.32-8.24,10.85-10.85,4.53-2.61,9.44-3.92,14.72-3.92,6.42,0,11.51,1.85,15.28,5.55,3.76,3.7,5.65,8.76,5.65,15.18ZM1086.1,204.75c3.59,0,6.82-.99,9.68-2.97,2.86-1.98,5.08-4.64,6.68-7.97,1.6-3.33,2.4-6.89,2.4-10.67s-1.13-6.83-3.39-8.96c-2.26-2.13-5.4-3.2-9.42-3.2-3.29,0-6.31.94-9.08,2.83-2.76,1.89-4.95,4.42-6.54,7.6-1.6,3.18-2.4,6.6-2.4,10.25,0,8.73,4.02,13.09,12.07,13.09Z"/>
      <path class="cls-10" d="M1168.21,173.92c0,1.11-.1,2.37-.3,3.8-.2,1.43-.67,3.74-1.41,6.94l-4.56,19.17h7.19l-1.98,8.2h-16.13l7.14-30.51c.52-2.64.78-4.36.78-5.16,0-1.57-.38-2.78-1.13-3.64-.75-.86-1.99-1.29-3.71-1.29-3.75,0-8.65,2.15-14.7,6.45l-6.13,25.94h7.14l-1.75,8.2h-22.12l1.89-8.2h5.76l7.56-31.98h-6.31l1.89-8.25h15.39l-1.34,5.76c5.96-4.27,11.21-6.41,15.76-6.41,3.59,0,6.34.98,8.22,2.93,1.89,1.95,2.83,4.63,2.83,8.04Z"/>
      <path class="cls-10" d="M1210.19,167.1l1.06-3.5h8.02l-3.13,13.5h-8.11c-.06-2.06-1.02-3.7-2.88-4.93-1.86-1.23-4.36-1.84-7.49-1.84-2.64,0-4.74.51-6.29,1.54-1.55,1.03-2.33,2.37-2.33,4.03,0,1.44.49,2.57,1.47,3.39.98.81,3.07,1.85,6.27,3.11l2.58,1.01c5.41,2.27,9.07,4.53,10.99,6.77,1.92,2.24,2.88,5.05,2.88,8.43,0,4.33-1.63,7.79-4.91,10.37-3.27,2.58-8.03,3.87-14.26,3.87-5.78,0-9.95-1.35-12.53-4.05l-.6,3.23h-8.2l3.23-13.5h8.2c0,2.27.97,4.04,2.93,5.3s4.55,1.89,7.81,1.89c2.86,0,5.13-.58,6.82-1.75,1.69-1.17,2.54-2.66,2.54-4.47s-.74-3.26-2.21-4.42c-1.47-1.17-3.98-2.47-7.51-3.92l-3.5-1.38c-3.69-1.6-6.4-3.42-8.13-5.46-1.74-2.04-2.6-4.54-2.6-7.49,0-2.52.74-4.85,2.21-6.98,1.47-2.13,3.55-3.82,6.22-5.05,2.67-1.23,5.68-1.84,9.03-1.84,4.98,0,9.12,1.38,12.44,4.15Z"/>
    </g>
  </g>
</svg>