<?xml version="1.0" encoding="UTF-8"?>
<svg id="Layer_2" data-name="Layer 2" xmlns="http://www.w3.org/2000/svg" viewBox="0 0 388.47 783.32">
  <defs>
    <style>
      .cls-1 {
        fill: #3fa9f5;
      }

      .cls-2 {
        fill: #666;
      }

      .cls-3 {
        stroke: #000;
        stroke-miterlimit: 10;
      }

      .cls-4 {
        fill: #999;
      }
    </style>
  </defs>
  <g id="Layer_1-2" data-name="Layer 1">
    <g>
      <path class="cls-1" d="M179.81,333.73c-70.06,0-127.06-57-127.06-127.06s57-127.06,127.06-127.06,127.06,57,127.06,127.06-57,127.06-127.06,127.06Z"/>
      <path d="M179.81,80.12c33.8,0,65.59,13.16,89.49,37.07s37.07,55.68,37.07,89.49-13.16,65.59-37.07,89.49-55.68,37.07-89.49,37.07-65.59-13.16-89.49-37.07-37.07-55.68-37.07-89.49,13.16-65.59,37.07-89.49,55.68-37.07,89.49-37.07M179.81,79.12c-70.45,0-127.56,57.11-127.56,127.56s57.11,127.56,127.56,127.56,127.56-57.11,127.56-127.56-57.11-127.56-127.56-127.56h0Z"/>
    </g>
    <g>
      <rect class="cls-1" x="40.12" y="360.02" width="279.39" height="422.8" rx="73.8" ry="73.8"/>
      <path d="M245.7,360.52c40.42,0,73.3,32.88,73.3,73.3v275.19c0,40.42-32.88,73.3-73.3,73.3H113.92c-40.42,0-73.3-32.88-73.3-73.3v-275.19c0-40.42,32.88-73.3,73.3-73.3h131.78M245.7,359.52H113.92c-41.04,0-74.3,33.27-74.3,74.3v275.19c0,41.04,33.27,74.3,74.3,74.3h131.78c41.04,0,74.3-33.27,74.3-74.3v-275.19c0-41.04-33.27-74.3-74.3-74.3h0Z"/>
    </g>
    <g>
      <path class="cls-4" d="M369.57,194.01c-2.31,0-4.59-.61-6.6-1.77L108.09,45.08c-6.31-3.65-8.49-11.75-4.84-18.06l4.66-8.08c2.36-4.08,6.75-6.61,11.46-6.61,2.31,0,4.59.61,6.6,1.77l39.74,22.95.19-.59c.12-.38.29-.74.48-1.09l18.18-31.48c1.03-1.78,2.94-2.88,5-2.88,1.01,0,2,.27,2.88.77l165.84,95.75c2.75,1.59,3.7,5.12,2.11,7.88l-18.18,31.48c-.2.34-.43.67-.7.96l-.41.46,39.74,22.95c6.31,3.65,8.49,11.75,4.84,18.06l-4.66,8.08c-2.36,4.08-6.75,6.61-11.46,6.61h0ZM199.25,28.57c-8.1,0-15.65,4.35-19.69,11.36l-1.22,2.11c-.25.43-.51.79-.81,1.12l-.41.46,151.18,87.28.19-.59c.14-.43.32-.83.53-1.2l1.25-2.17c6.26-10.85,2.53-24.77-8.31-31.03L210.58,31.61c-3.45-1.99-7.37-3.05-11.34-3.05Z"/>
      <path d="M189.57,1.5c.92,0,1.83.24,2.63.71l165.84,95.75c1.22.7,2.09,1.84,2.45,3.2.36,1.36.18,2.78-.53,4l-18.18,31.48c-.18.31-.4.61-.64.88l-.82.92,1.07.62,39.21,22.64c6.08,3.51,8.16,11.3,4.66,17.38l-4.66,8.08c-2.27,3.93-6.49,6.36-11.03,6.36-2.22,0-4.41-.59-6.35-1.71L108.34,44.64c-2.94-1.7-5.05-4.44-5.93-7.73-.88-3.28-.43-6.71,1.27-9.65l4.66-8.08c2.27-3.93,6.49-6.36,11.03-6.36,2.22,0,4.41.59,6.35,1.71l39.21,22.64,1.07.62.38-1.17c.11-.35.26-.68.44-.99l18.18-31.48c.94-1.63,2.69-2.64,4.57-2.64M328.58,131.65l.38-1.18c.13-.39.29-.77.49-1.1l.04-.07,1.22-2.11c6.4-11.09,2.59-25.31-8.5-31.71L210.83,31.18c-3.53-2.04-7.54-3.11-11.59-3.11-8.28,0-15.99,4.45-20.13,11.61l-1.22,2.11-.04.06c-.19.34-.43.67-.71.97l-.83.92,1.07.62,150.11,86.67,1.07.62M189.57.5c-2.17,0-4.27,1.12-5.43,3.14l-18.18,31.48c-.22.38-.4.78-.53,1.18l-39.21-22.64c-2.16-1.25-4.52-1.84-6.85-1.84-4.74,0-9.36,2.46-11.9,6.86l-4.66,8.08c-3.79,6.56-1.54,14.96,5.02,18.75l254.89,147.16c2.16,1.25,4.52,1.84,6.85,1.84,4.74,0,9.36-2.46,11.9-6.86l4.66-8.08c3.79-6.56,1.54-14.96-5.02-18.75l-39.21-22.64c.28-.32.54-.67.76-1.05l18.18-31.48c1.73-3,.7-6.83-2.29-8.56L192.7,1.34c-.99-.57-2.07-.84-3.13-.84h0ZM328.01,130.16L177.9,43.5c.31-.35.6-.73.84-1.15.01-.02.02-.04.03-.06l1.22-2.11c4.11-7.13,11.58-11.11,19.26-11.11,3.77,0,7.59.96,11.09,2.98l111.37,64.3c10.63,6.13,14.27,19.72,8.13,30.35l-1.22,2.11s-.02.04-.03.06c-.24.42-.43.85-.58,1.3h0Z"/>
    </g>
    <g>
      <polygon class="cls-4" points="41.97 782.82 .57 471.49 359.06 471.49 321.48 782.82 41.97 782.82"/>
      <path d="M358.5,471.99l-37.46,310.32H42.41L1.14,471.99h357.35M359.62,470.99H0l41.53,312.32h280.39l37.7-312.32h0Z"/>
    </g>
    <g>
      <rect class="cls-2" x="48.31" y="520.17" width="67.57" height="213.97" rx="19.94" ry="19.94"/>
      <path d="M95.94,520.67c10.72,0,19.44,8.72,19.44,19.44v174.09c0,10.72-8.72,19.44-19.44,19.44h-27.69c-10.72,0-19.44-8.72-19.44-19.44v-174.09c0-10.72,8.72-19.44,19.44-19.44h27.69M95.94,519.67h-27.69c-11.29,0-20.44,9.15-20.44,20.44v174.09c0,11.29,9.15,20.44,20.44,20.44h27.69c11.29,0,20.44-9.15,20.44-20.44v-174.09c0-11.29-9.15-20.44-20.44-20.44h0Z"/>
    </g>
    <g>
      <rect class="cls-2" x="150.13" y="520.17" width="67.57" height="213.97" rx="19.94" ry="19.94"/>
      <path d="M197.76,520.67c10.72,0,19.44,8.72,19.44,19.44v174.09c0,10.72-8.72,19.44-19.44,19.44h-27.69c-10.72,0-19.44-8.72-19.44-19.44v-174.09c0-10.72,8.72-19.44,19.44-19.44h27.69M197.76,519.67h-27.69c-11.29,0-20.44,9.15-20.44,20.44v174.09c0,11.29,9.15,20.44,20.44,20.44h27.69c11.29,0,20.44-9.15,20.44-20.44v-174.09c0-11.29-9.15-20.44-20.44-20.44h0Z"/>
    </g>
    <g>
      <rect class="cls-2" x="251.94" y="520.17" width="67.57" height="213.97" rx="19.94" ry="19.94"/>
      <path d="M299.57,520.67c10.72,0,19.44,8.72,19.44,19.44v174.09c0,10.72-8.72,19.44-19.44,19.44h-27.69c-10.72,0-19.44-8.72-19.44-19.44v-174.09c0-10.72,8.72-19.44,19.44-19.44h27.69M299.57,519.67h-27.69c-11.29,0-20.44,9.15-20.44,20.44v174.09c0,11.29,9.15,20.44,20.44,20.44h27.69c11.29,0,20.44-9.15,20.44-20.44v-174.09c0-11.29-9.15-20.44-20.44-20.44h0Z"/>
    </g>
    <circle class="cls-3" cx="126.91" cy="175.75" r="30.93"/>
    <circle class="cls-3" cx="232.72" cy="175.75" r="30.93"/>
    <path class="cls-3" d="M224.87,259.76c-2.18,0-4.22,1.02-5.59,2.72-9.32,11.47-23.53,18.8-39.46,18.8s-30.14-7.33-39.46-18.8c-1.38-1.69-3.41-2.72-5.59-2.72h-.71c-6.16,0-9.43,7.32-5.29,11.88,12.62,13.89,30.81,22.62,51.06,22.62s38.44-8.73,51.06-22.62c4.14-4.56.87-11.88-5.29-11.88h-.71Z"/>
  </g>
</svg>